<svg width="48" height="53" viewBox="0 0 48 53" fill="none" xmlns="http://www.w3.org/2000/svg">
<path fill-rule="evenodd" clip-rule="evenodd" d="M0 26.2077C0 11.7336 10.6976 0 23.8937 0C37.0898 0 47.7873 11.7336 47.7873 26.2077C47.7873 40.6818 37.0898 52.4154 23.8937 52.4154C10.6976 52.4154 0 40.6818 0 26.2077ZM23.8937 13.1039C30.4644 13.1039 35.8405 19.0006 35.8405 26.2077C35.8405 32.7596 31.5098 38.3288 25.5364 39.3116V29.9751H28.3737L28.9711 26.2077H25.6857V23.7507C25.6857 22.768 26.1337 21.7852 27.6271 21.7852H29.1204V18.5092C29.1204 18.5092 27.7764 18.1816 26.4324 18.1816C23.7443 18.1816 21.9523 19.9834 21.9523 23.2593V26.2077H18.9656V29.9751H21.9523V39.1478C16.2776 38.165 11.9468 32.7596 11.9468 26.2077C11.9468 19.0006 17.3229 13.1039 23.8937 13.1039Z" fill="url(#paint0_linear_10_333)"/>
<defs>
<linearGradient id="paint0_linear_10_333" x1="23.8937" y1="0" x2="23.8937" y2="52.4154" gradientUnits="userSpaceOnUse">
<stop stop-color="#0B3269"/>
<stop offset="0.5" stop-color="#508ADB"/>
<stop offset="0.75" stop-color="#508ADB"/>
<stop offset="1" stop-color="white"/>
</linearGradient>
</defs>
</svg>
